<svg width="24" height="24" viewBox="0 0 24 24" fill="none" xmlns="http://www.w3.org/2000/svg">
  <path d="M3 18V6M3 18H21M3 18L5 15L7 12L9 10L11 8L13 6" stroke="#bfbfbf" stroke-width="2" stroke-linecap="round" stroke-linejoin="round"/>
  <path d="M3 18L5 15L7 12L9 10L11 8L13 6L21 6V18Z" fill="#bfbfbf" fill-opacity="0.2"/>
  <path d="M3 18L4.5 16L6 14L7.5 12L9 10.5L10.5 9L12 7.5L13.5 6" stroke="#bfbfbf" stroke-width="1.5" stroke-linecap="round" stroke-linejoin="round" stroke-opacity="0.6"/>
  <path d="M3 18L4.5 16L6 14L7.5 12L9 10.5L10.5 9L12 7.5L13.5 6L21 6V18Z" fill="#bfbfbf" fill-opacity="0.1"/>
</svg>
